<svg width="337" height="76" viewBox="0 0 337 76" fill="none" xmlns="http://www.w3.org/2000/svg">
<rect width="337" height="76" fill="#FF7F5C"/>
<path d="M105.66 44.24C104.834 44.24 104.087 44.0987 103.42 43.816C102.759 43.528 102.212 43.12 101.78 42.592C101.354 42.0587 101.076 41.4267 100.948 40.696L102.692 40.432C102.868 41.136 103.236 41.6853 103.796 42.08C104.356 42.4693 105.01 42.664 105.756 42.664C106.22 42.664 106.647 42.592 107.036 42.448C107.426 42.2987 107.738 42.088 107.972 41.816C108.212 41.5387 108.332 41.208 108.332 40.824C108.332 40.616 108.295 40.432 108.22 40.272C108.151 40.112 108.052 39.9733 107.924 39.856C107.802 39.7333 107.65 39.6293 107.468 39.544C107.292 39.4533 107.098 39.376 106.884 39.312L103.932 38.44C103.644 38.3547 103.351 38.2453 103.052 38.112C102.754 37.9733 102.479 37.7947 102.228 37.576C101.983 37.352 101.783 37.0773 101.628 36.752C101.474 36.4213 101.396 36.0213 101.396 35.552C101.396 34.8427 101.578 34.2427 101.94 33.752C102.308 33.256 102.804 32.8827 103.428 32.632C104.052 32.376 104.751 32.248 105.524 32.248C106.303 32.2587 106.999 32.3973 107.612 32.664C108.231 32.9307 108.743 33.3147 109.148 33.816C109.559 34.312 109.842 34.9147 109.996 35.624L108.204 35.928C108.124 35.496 107.954 35.1253 107.692 34.816C107.431 34.5013 107.111 34.2613 106.732 34.096C106.354 33.9253 105.943 33.8373 105.5 33.832C105.074 33.8213 104.682 33.8853 104.324 34.024C103.972 34.1627 103.69 34.3573 103.476 34.608C103.268 34.8587 103.164 35.1467 103.164 35.472C103.164 35.792 103.258 36.0507 103.444 36.248C103.631 36.4453 103.86 36.6027 104.132 36.72C104.41 36.832 104.684 36.9253 104.956 37L107.084 37.6C107.351 37.6747 107.652 37.776 107.988 37.904C108.33 38.0267 108.658 38.2 108.972 38.424C109.292 38.648 109.556 38.9467 109.764 39.32C109.972 39.688 110.076 40.152 110.076 40.712C110.076 41.2933 109.959 41.8053 109.724 42.248C109.49 42.6853 109.167 43.0533 108.756 43.352C108.351 43.6453 107.882 43.8667 107.348 44.016C106.815 44.1653 106.252 44.24 105.66 44.24ZM117.525 44V39.752C117.525 39.416 117.496 39.072 117.437 38.72C117.384 38.3627 117.277 38.032 117.117 37.728C116.963 37.424 116.741 37.1787 116.453 36.992C116.171 36.8053 115.8 36.712 115.341 36.712C115.043 36.712 114.76 36.7627 114.493 36.864C114.227 36.96 113.992 37.1173 113.789 37.336C113.592 37.5547 113.435 37.8427 113.317 38.2C113.205 38.5573 113.149 38.992 113.149 39.504L112.109 39.112C112.109 38.328 112.256 37.6373 112.549 37.04C112.843 36.4373 113.264 35.968 113.813 35.632C114.363 35.296 115.027 35.128 115.805 35.128C116.403 35.128 116.904 35.224 117.309 35.416C117.715 35.608 118.043 35.8613 118.293 36.176C118.549 36.4853 118.744 36.824 118.877 37.192C119.011 37.56 119.101 37.92 119.149 38.272C119.197 38.624 119.221 38.9333 119.221 39.2V44H117.525ZM111.453 44V32.48H112.949V38.696H113.149V44H111.453ZM124.737 44.24C123.873 44.24 123.124 44.0453 122.489 43.656C121.854 43.2667 121.364 42.7307 121.017 42.048C120.676 41.36 120.505 40.568 120.505 39.672C120.505 38.7707 120.681 37.9787 121.033 37.296C121.385 36.608 121.878 36.0747 122.513 35.696C123.148 35.312 123.889 35.12 124.737 35.12C125.601 35.12 126.35 35.3147 126.985 35.704C127.62 36.0933 128.11 36.6293 128.457 37.312C128.804 37.9947 128.977 38.7813 128.977 39.672C128.977 40.5733 128.801 41.368 128.449 42.056C128.102 42.7387 127.612 43.2747 126.977 43.664C126.342 44.048 125.596 44.24 124.737 44.24ZM124.737 42.664C125.564 42.664 126.18 42.3867 126.585 41.832C126.996 41.272 127.201 40.552 127.201 39.672C127.201 38.7707 126.993 38.0507 126.577 37.512C126.166 36.968 125.553 36.696 124.737 36.696C124.177 36.696 123.716 36.824 123.353 37.08C122.99 37.3307 122.721 37.68 122.545 38.128C122.369 38.5707 122.281 39.0853 122.281 39.672C122.281 40.5787 122.489 41.304 122.905 41.848C123.321 42.392 123.932 42.664 124.737 42.664ZM134.167 44.24C133.303 44.24 132.554 44.0453 131.919 43.656C131.284 43.2667 130.794 42.7307 130.447 42.048C130.106 41.36 129.935 40.568 129.935 39.672C129.935 38.7707 130.111 37.9787 130.463 37.296C130.815 36.608 131.308 36.0747 131.943 35.696C132.578 35.312 133.319 35.12 134.167 35.12C135.031 35.12 135.78 35.3147 136.415 35.704C137.05 36.0933 137.54 36.6293 137.887 37.312C138.234 37.9947 138.407 38.7813 138.407 39.672C138.407 40.5733 138.231 41.368 137.879 42.056C137.532 42.7387 137.042 43.2747 136.407 43.664C135.772 44.048 135.026 44.24 134.167 44.24ZM134.167 42.664C134.994 42.664 135.61 42.3867 136.015 41.832C136.426 41.272 136.631 40.552 136.631 39.672C136.631 38.7707 136.423 38.0507 136.007 37.512C135.596 36.968 134.983 36.696 134.167 36.696C133.607 36.696 133.146 36.824 132.783 37.08C132.42 37.3307 132.151 37.68 131.975 38.128C131.799 38.5707 131.711 39.0853 131.711 39.672C131.711 40.5787 131.919 41.304 132.335 41.848C132.751 42.392 133.362 42.664 134.167 42.664ZM144.789 44C144.245 44.1067 143.712 44.152 143.189 44.136C142.666 44.12 142.2 44.0187 141.789 43.832C141.378 43.6453 141.069 43.352 140.861 42.952C140.674 42.5947 140.573 42.232 140.557 41.864C140.546 41.4907 140.541 41.0693 140.541 40.6V32.96H142.221V40.52C142.221 40.8667 142.224 41.168 142.229 41.424C142.24 41.68 142.296 41.896 142.397 42.072C142.589 42.4027 142.893 42.592 143.309 42.64C143.73 42.6827 144.224 42.664 144.789 42.584V44ZM138.885 36.704V35.36H144.789V36.704H138.885ZM151.614 44.24C150.974 44.24 150.438 44.1227 150.006 43.888C149.574 43.648 149.246 43.3333 149.022 42.944C148.803 42.5493 148.694 42.1173 148.694 41.648C148.694 41.2107 148.771 40.8267 148.926 40.496C149.08 40.1653 149.31 39.8853 149.614 39.656C149.918 39.4213 150.291 39.232 150.734 39.088C151.118 38.976 151.552 38.8773 152.038 38.792C152.523 38.7067 153.032 38.6267 153.566 38.552C154.104 38.4773 154.638 38.4027 155.166 38.328L154.558 38.664C154.568 37.9867 154.424 37.4853 154.126 37.16C153.832 36.8293 153.326 36.664 152.606 36.664C152.152 36.664 151.736 36.7707 151.358 36.984C150.979 37.192 150.715 37.5387 150.566 38.024L149.006 37.544C149.219 36.8027 149.624 36.2133 150.222 35.776C150.824 35.3387 151.624 35.12 152.622 35.12C153.395 35.12 154.067 35.2533 154.638 35.52C155.214 35.7813 155.635 36.1973 155.902 36.768C156.04 37.0507 156.126 37.3493 156.158 37.664C156.19 37.9787 156.206 38.3173 156.206 38.68V44H154.726V42.024L155.014 42.28C154.656 42.9413 154.2 43.4347 153.646 43.76C153.096 44.08 152.419 44.24 151.614 44.24ZM151.91 42.872C152.384 42.872 152.792 42.7893 153.134 42.624C153.475 42.4533 153.75 42.2373 153.958 41.976C154.166 41.7147 154.302 41.4427 154.366 41.16C154.456 40.904 154.507 40.616 154.518 40.296C154.534 39.976 154.542 39.72 154.542 39.528L155.086 39.728C154.558 39.808 154.078 39.88 153.646 39.944C153.214 40.008 152.822 40.072 152.47 40.136C152.123 40.1947 151.814 40.2667 151.542 40.352C151.312 40.432 151.107 40.528 150.926 40.64C150.75 40.752 150.608 40.888 150.502 41.048C150.4 41.208 150.35 41.4027 150.35 41.632C150.35 41.856 150.406 42.064 150.518 42.256C150.63 42.4427 150.8 42.592 151.03 42.704C151.259 42.816 151.552 42.872 151.91 42.872ZM160.846 44V32.48H164.454C164.561 32.48 164.758 32.4827 165.046 32.488C165.34 32.4933 165.62 32.5147 165.886 32.552C166.788 32.664 167.545 32.9867 168.158 33.52C168.777 34.0533 169.244 34.7307 169.558 35.552C169.873 36.368 170.03 37.264 170.03 38.24C170.03 39.2213 169.873 40.1227 169.558 40.944C169.244 41.76 168.777 42.4347 168.158 42.968C167.545 43.496 166.788 43.816 165.886 43.928C165.62 43.9653 165.34 43.9867 165.046 43.992C164.758 43.9973 164.561 44 164.454 44H160.846ZM162.558 42.408H164.454C164.636 42.408 164.852 42.4027 165.102 42.392C165.353 42.3813 165.574 42.36 165.766 42.328C166.353 42.216 166.828 41.9627 167.19 41.568C167.558 41.168 167.828 40.6773 167.998 40.096C168.169 39.5147 168.254 38.896 168.254 38.24C168.254 37.5627 168.166 36.936 167.99 36.36C167.814 35.7787 167.542 35.2933 167.174 34.904C166.812 34.5093 166.342 34.2587 165.766 34.152C165.574 34.1147 165.35 34.0933 165.094 34.088C164.844 34.0773 164.63 34.072 164.454 34.072H162.558V42.408ZM171.733 33.944V32.32H173.405V33.944H171.733ZM171.733 44V35.36H173.405V44H171.733ZM175.488 44V35.36H176.976V37.456L176.768 37.184C176.874 36.9067 177.013 36.6533 177.184 36.424C177.354 36.1893 177.552 35.9973 177.776 35.848C177.994 35.688 178.237 35.5653 178.504 35.48C178.776 35.3893 179.053 35.336 179.336 35.32C179.618 35.2987 179.89 35.312 180.152 35.36V36.928C179.869 36.8533 179.554 36.832 179.208 36.864C178.866 36.896 178.552 37.0053 178.264 37.192C177.992 37.368 177.776 37.5813 177.616 37.832C177.461 38.0827 177.349 38.3627 177.28 38.672C177.21 38.976 177.176 39.2987 177.176 39.64V44H175.488ZM185.031 44.24C184.172 44.24 183.417 44.0533 182.767 43.68C182.121 43.3013 181.617 42.776 181.255 42.104C180.897 41.4267 180.719 40.6427 180.719 39.752C180.719 38.808 180.895 37.9893 181.247 37.296C181.604 36.6027 182.1 36.0667 182.735 35.688C183.369 35.3093 184.108 35.12 184.951 35.12C185.831 35.12 186.58 35.3253 187.199 35.736C187.817 36.1413 188.279 36.72 188.583 37.472C188.892 38.224 189.015 39.1173 188.951 40.152H187.279V39.544C187.268 38.5413 187.076 37.8 186.703 37.32C186.335 36.84 185.772 36.6 185.015 36.6C184.177 36.6 183.548 36.864 183.127 37.392C182.705 37.92 182.495 38.6827 182.495 39.68C182.495 40.6293 182.705 41.3653 183.127 41.888C183.548 42.4053 184.156 42.664 184.951 42.664C185.473 42.664 185.924 42.5467 186.303 42.312C186.687 42.072 186.985 41.7307 187.199 41.288L188.839 41.808C188.503 42.5813 187.993 43.1813 187.311 43.608C186.628 44.0293 185.868 44.24 185.031 44.24ZM181.951 40.152V38.848H188.119V40.152H181.951ZM194.122 44.24C193.236 44.24 192.484 44.0427 191.866 43.648C191.247 43.2533 190.772 42.712 190.442 42.024C190.116 41.336 189.951 40.5547 189.946 39.68C189.951 38.7893 190.122 38.0027 190.458 37.32C190.794 36.632 191.274 36.0933 191.898 35.704C192.522 35.3147 193.271 35.12 194.146 35.12C195.09 35.12 195.895 35.3547 196.562 35.824C197.234 36.2933 197.676 36.936 197.89 37.752L196.226 38.232C196.06 37.7467 195.788 37.3707 195.41 37.104C195.036 36.832 194.607 36.696 194.122 36.696C193.572 36.696 193.122 36.8267 192.77 37.088C192.418 37.344 192.156 37.696 191.986 38.144C191.815 38.592 191.727 39.104 191.722 39.68C191.727 40.5707 191.93 41.2907 192.33 41.84C192.735 42.3893 193.332 42.664 194.122 42.664C194.66 42.664 195.095 42.5413 195.426 42.296C195.762 42.0453 196.018 41.688 196.194 41.224L197.89 41.624C197.607 42.4667 197.14 43.1147 196.49 43.568C195.839 44.016 195.05 44.24 194.122 44.24ZM204.143 44C203.599 44.1067 203.066 44.152 202.543 44.136C202.021 44.12 201.554 44.0187 201.143 43.832C200.733 43.6453 200.423 43.352 200.215 42.952C200.029 42.5947 199.927 42.232 199.911 41.864C199.901 41.4907 199.895 41.0693 199.895 40.6V32.96H201.575V40.52C201.575 40.8667 201.578 41.168 201.583 41.424C201.594 41.68 201.65 41.896 201.751 42.072C201.943 42.4027 202.247 42.592 202.663 42.64C203.085 42.6827 203.578 42.664 204.143 42.584V44ZM198.239 36.704V35.36H204.143V36.704H198.239ZM208.528 44V32.48H210.04L214.216 41.144L218.368 32.48H219.896V43.992H218.312V36.112L214.592 44H213.832L210.104 36.112V44H208.528ZM224.257 44.24C223.617 44.24 223.081 44.1227 222.649 43.888C222.217 43.648 221.889 43.3333 221.665 42.944C221.447 42.5493 221.337 42.1173 221.337 41.648C221.337 41.2107 221.415 40.8267 221.569 40.496C221.724 40.1653 221.953 39.8853 222.257 39.656C222.561 39.4213 222.935 39.232 223.377 39.088C223.761 38.976 224.196 38.8773 224.681 38.792C225.167 38.7067 225.676 38.6267 226.209 38.552C226.748 38.4773 227.281 38.4027 227.809 38.328L227.201 38.664C227.212 37.9867 227.068 37.4853 226.769 37.16C226.476 36.8293 225.969 36.664 225.249 36.664C224.796 36.664 224.38 36.7707 224.001 36.984C223.623 37.192 223.359 37.5387 223.209 38.024L221.649 37.544C221.863 36.8027 222.268 36.2133 222.865 35.776C223.468 35.3387 224.268 35.12 225.265 35.12C226.039 35.12 226.711 35.2533 227.281 35.52C227.857 35.7813 228.279 36.1973 228.545 36.768C228.684 37.0507 228.769 37.3493 228.801 37.664C228.833 37.9787 228.849 38.3173 228.849 38.68V44H227.369V42.024L227.657 42.28C227.3 42.9413 226.844 43.4347 226.289 43.76C225.74 44.08 225.063 44.24 224.257 44.24ZM224.553 42.872C225.028 42.872 225.436 42.7893 225.777 42.624C226.119 42.4533 226.393 42.2373 226.601 41.976C226.809 41.7147 226.945 41.4427 227.009 41.16C227.1 40.904 227.151 40.616 227.161 40.296C227.177 39.976 227.185 39.72 227.185 39.528L227.729 39.728C227.201 39.808 226.721 39.88 226.289 39.944C225.857 40.008 225.465 40.072 225.113 40.136C224.767 40.1947 224.457 40.2667 224.185 40.352C223.956 40.432 223.751 40.528 223.569 40.64C223.393 40.752 223.252 40.888 223.145 41.048C223.044 41.208 222.993 41.4027 222.993 41.632C222.993 41.856 223.049 42.064 223.161 42.256C223.273 42.4427 223.444 42.592 223.673 42.704C223.903 42.816 224.196 42.872 224.553 42.872ZM230.767 33.944V32.32H232.439V33.944H230.767ZM230.767 44V35.36H232.439V44H230.767ZM234.681 44V32.24H236.353V44H234.681Z" fill="white"/>
</svg>
